<?xml version="1.0" encoding="UTF-8"?>
<svg version="1.1" xmlns="http://www.w3.org/2000/svg" width="500" height="500">
<path d="M0 0 C165 0 330 0 500 0 C500 165 500 330 500 500 C335 500 170 500 0 500 C0 335 0 170 0 0 Z " fill="#FEFEFE" transform="translate(0,0)"/>
<path d="M0 0 C209.92222222 0 209.92222222 0 256 39 C256.88429688 39.73734375 257.76859375 40.4746875 258.6796875 41.234375 C287.73966396 66.42517612 300.0527724 103.18184874 306 140 C306.13422363 140.8245166 306.26844727 141.6490332 306.40673828 142.49853516 C310.74159464 170.85495842 308.84686945 200.87184356 304 229 C303.84515137 229.91136719 303.69030273 230.82273437 303.53076172 231.76171875 C296.84736066 269.47889683 276.31634348 304.8673953 244.92382812 327.12548828 C229.2029199 337.83339396 212.22015213 344.7853794 194 350 C193.24783203 350.21736816 192.49566406 350.43473633 191.72070312 350.65869141 C133.03575706 367.01057661 51.2962464 358 0 358 C0 239.86 0 121.72 0 0 Z " fill="#000000" transform="translate(105,73)"/>
<path d="M0 0 C106.63398627 0 106.63398627 0 137.0625 28.625 C159.55779773 51.74710169 164.45968959 87.26638866 164.375 118.1875 C164.37478851 118.91112732 164.37457703 119.63475464 164.37435913 120.38031006 C164.28711969 150.67927128 159.68547327 181.22368186 141 206 C140.55398438 206.598125 140.10796875 207.19625 139.6484375 207.8125 C125.77687046 225.1713325 104.75673553 232.11606223 84 237 C56.28 237 28.56 237 0 237 C0 158.79 0 80.58 0 0 Z " fill="#FEFEFE" transform="translate(176,132)"/>
<path d="M0 0 C48.84 0 97.68 0 148 0 C148 18.81 148 37.62 148 57 C99.16 57 50.32 57 0 57 C0 38.19 0 19.38 0 0 Z " fill="#FAFAFA" transform="translate(107,371)"/>
<path d="M0 0 C0.33 0 0.66 0 1 0 C1 97.68 1 195.36 1 296 C50.83 296 100.66 296 152 296 C152.33 316.13 152.66 336.26 153 357 C102.25201939 362.07479806 51.00108931 358 0 358 C0 239.86 0 121.72 0 0 Z M2 298 C2 316.81 2 335.62 2 355 C50.84 355 99.68 355 150 355 C150 336.19 150 317.38 150 298 C101.16 298 52.32 298 2 298 Z " fill="#333333" transform="translate(105,73)"/>
</svg>
